<mxfile host="drawio-plugin" modified="2022-04-19T13:40:24.300Z" agent="5.0 (Macintosh; Intel Mac OS X 12_0_1) AppleWebKit/537.36 (KHTML, like Gecko) Chrome/89.0.4389.114 Safari/537.36" etag="JIHpiIJ_8rDnjucIY49z" version="15.5.4" type="embed"><diagram id="5LoccgN61xPdY9y1L4pC" name="Page-1"><mxGraphModel dx="3901" dy="470" grid="1" gridSize="10" guides="1" tooltips="1" connect="1" arrows="1" fold="1" page="1" pageScale="1" pageWidth="827" pageHeight="1169" math="0" shadow="0"><root><mxCell id="0"/><mxCell id="1" parent="0"/><mxCell id="6" style="edgeStyle=orthogonalEdgeStyle;rounded=0;orthogonalLoop=1;jettySize=auto;html=1;exitX=0.5;exitY=0;exitDx=0;exitDy=0;entryX=0.494;entryY=0.975;entryDx=0;entryDy=0;entryPerimeter=0;dashed=1;" parent="1" source="rRgUCX8sxpJ9eBNvkMSi-1" target="5" edge="1"><mxGeometry relative="1" as="geometry"/></mxCell><mxCell id="rRgUCX8sxpJ9eBNvkMSi-1" value="Day-A" style="swimlane;fontStyle=1;align=center;verticalAlign=top;childLayout=stackLayout;horizontal=1;startSize=26;horizontalStack=0;resizeParent=1;resizeParentMax=0;resizeLast=0;collapsible=1;marginBottom=0;" parent="1" vertex="1"><mxGeometry x="-1033" y="512" width="160" height="180" as="geometry"/></mxCell><mxCell id="rRgUCX8sxpJ9eBNvkMSi-2" value="- state: GameState" style="text;strokeColor=none;fillColor=none;align=left;verticalAlign=top;spacingLeft=4;spacingRight=4;overflow=hidden;rotatable=0;points=[[0,0.5],[1,0.5]];portConstraint=eastwest;" parent="rRgUCX8sxpJ9eBNvkMSi-1" vertex="1"><mxGeometry y="26" width="160" height="26" as="geometry"/></mxCell><mxCell id="194" value="- settings: Settings" style="text;strokeColor=none;fillColor=none;align=left;verticalAlign=top;spacingLeft=4;spacingRight=4;overflow=hidden;rotatable=0;points=[[0,0.5],[1,0.5]];portConstraint=eastwest;" vertex="1" parent="rRgUCX8sxpJ9eBNvkMSi-1"><mxGeometry y="52" width="160" height="26" as="geometry"/></mxCell><mxCell id="rRgUCX8sxpJ9eBNvkMSi-3" value="" style="line;strokeWidth=1;fillColor=none;align=left;verticalAlign=middle;spacingTop=-1;spacingLeft=3;spacingRight=3;rotatable=0;labelPosition=right;points=[];portConstraint=eastwest;" parent="rRgUCX8sxpJ9eBNvkMSi-1" vertex="1"><mxGeometry y="78" width="160" height="8" as="geometry"/></mxCell><mxCell id="rRgUCX8sxpJ9eBNvkMSi-4" value="+ getState(): GameState" style="text;strokeColor=none;fillColor=none;align=left;verticalAlign=top;spacingLeft=4;spacingRight=4;overflow=hidden;rotatable=0;points=[[0,0.5],[1,0.5]];portConstraint=eastwest;" parent="rRgUCX8sxpJ9eBNvkMSi-1" vertex="1"><mxGeometry y="86" width="160" height="24" as="geometry"/></mxCell><mxCell id="197" value="+ getSettings(): Settings" style="text;strokeColor=none;fillColor=none;align=left;verticalAlign=top;spacingLeft=4;spacingRight=4;overflow=hidden;rotatable=0;points=[[0,0.5],[1,0.5]];portConstraint=eastwest;" vertex="1" parent="rRgUCX8sxpJ9eBNvkMSi-1"><mxGeometry y="110" width="160" height="30" as="geometry"/></mxCell><mxCell id="196" value="+ nextLeveL(int): void" style="text;strokeColor=none;fillColor=none;align=left;verticalAlign=top;spacingLeft=4;spacingRight=4;overflow=hidden;rotatable=0;points=[[0,0.5],[1,0.5]];portConstraint=eastwest;" vertex="1" parent="rRgUCX8sxpJ9eBNvkMSi-1"><mxGeometry y="140" width="160" height="40" as="geometry"/></mxCell><mxCell id="58" style="edgeStyle=orthogonalEdgeStyle;rounded=0;orthogonalLoop=1;jettySize=auto;html=1;dashed=1;exitX=0.5;exitY=0;exitDx=0;exitDy=0;entryX=0.996;entryY=0.807;entryDx=0;entryDy=0;entryPerimeter=0;endArrow=block;endFill=0;" parent="1" source="rRgUCX8sxpJ9eBNvkMSi-49" target="57" edge="1"><mxGeometry relative="1" as="geometry"><Array as="points"><mxPoint x="-1593" y="1072"/><mxPoint x="-1973" y="1072"/><mxPoint x="-1973" y="1011"/><mxPoint x="-2014" y="1011"/></Array></mxGeometry></mxCell><mxCell id="61" style="edgeStyle=orthogonalEdgeStyle;rounded=0;orthogonalLoop=1;jettySize=auto;html=1;entryX=1;entryY=0.5;entryDx=0;entryDy=0;dashed=1;exitX=0.75;exitY=0;exitDx=0;exitDy=0;" parent="1" source="rRgUCX8sxpJ9eBNvkMSi-49" target="54" edge="1"><mxGeometry relative="1" as="geometry"/></mxCell><mxCell id="rRgUCX8sxpJ9eBNvkMSi-5" value="Enemy" style="swimlane;fontStyle=3;align=center;verticalAlign=top;childLayout=stackLayout;horizontal=1;startSize=26;horizontalStack=0;resizeParent=1;resizeParentMax=0;resizeLast=0;collapsible=1;marginBottom=0;" parent="1" vertex="1"><mxGeometry x="-1855" y="1354" width="160" height="112" as="geometry"/></mxCell><mxCell id="245" value="- damage: int" style="text;strokeColor=none;fillColor=none;align=left;verticalAlign=top;spacingLeft=4;spacingRight=4;overflow=hidden;rotatable=0;points=[[0,0.5],[1,0.5]];portConstraint=eastwest;" vertex="1" parent="rRgUCX8sxpJ9eBNvkMSi-5"><mxGeometry y="26" width="160" height="26" as="geometry"/></mxCell><mxCell id="rRgUCX8sxpJ9eBNvkMSi-7" value="" style="line;strokeWidth=1;fillColor=none;align=left;verticalAlign=middle;spacingTop=-1;spacingLeft=3;spacingRight=3;rotatable=0;labelPosition=right;points=[];portConstraint=eastwest;" parent="rRgUCX8sxpJ9eBNvkMSi-5" vertex="1"><mxGeometry y="52" width="160" height="8" as="geometry"/></mxCell><mxCell id="247" value="+ getDamage(): int" style="text;strokeColor=none;fillColor=none;align=left;verticalAlign=top;spacingLeft=4;spacingRight=4;overflow=hidden;rotatable=0;points=[[0,0.5],[1,0.5]];portConstraint=eastwest;" vertex="1" parent="rRgUCX8sxpJ9eBNvkMSi-5"><mxGeometry y="60" width="160" height="26" as="geometry"/></mxCell><mxCell id="248" value="+ applyDamage(int): void" style="text;strokeColor=none;fillColor=none;align=left;verticalAlign=top;spacingLeft=4;spacingRight=4;overflow=hidden;rotatable=0;points=[[0,0.5],[1,0.5]];portConstraint=eastwest;" vertex="1" parent="rRgUCX8sxpJ9eBNvkMSi-5"><mxGeometry y="86" width="160" height="26" as="geometry"/></mxCell><mxCell id="73" style="edgeStyle=orthogonalEdgeStyle;rounded=0;orthogonalLoop=1;jettySize=auto;html=1;entryX=0.25;entryY=1;entryDx=0;entryDy=0;endArrow=block;endFill=0;" parent="1" source="rRgUCX8sxpJ9eBNvkMSi-13" target="67" edge="1"><mxGeometry relative="1" as="geometry"/></mxCell><mxCell id="77" style="edgeStyle=orthogonalEdgeStyle;rounded=0;orthogonalLoop=1;jettySize=auto;html=1;entryX=1;entryY=0.5;entryDx=0;entryDy=0;endArrow=block;endFill=0;dashed=1;" parent="1" source="rRgUCX8sxpJ9eBNvkMSi-13" target="74" edge="1"><mxGeometry relative="1" as="geometry"/></mxCell><mxCell id="129" style="edgeStyle=orthogonalEdgeStyle;rounded=0;orthogonalLoop=1;jettySize=auto;html=1;dashed=1;entryX=1;entryY=0.5;entryDx=0;entryDy=0;" parent="1" source="rRgUCX8sxpJ9eBNvkMSi-13" target="64" edge="1"><mxGeometry relative="1" as="geometry"><Array as="points"><mxPoint x="-1603" y="747"/><mxPoint x="-1603" y="922"/><mxPoint x="-1733" y="922"/><mxPoint x="-1733" y="1237"/></Array></mxGeometry></mxCell><mxCell id="132" style="edgeStyle=orthogonalEdgeStyle;rounded=0;orthogonalLoop=1;jettySize=auto;html=1;dashed=1;entryX=1;entryY=0.5;entryDx=0;entryDy=0;" parent="1" source="rRgUCX8sxpJ9eBNvkMSi-13" target="131" edge="1"><mxGeometry relative="1" as="geometry"/></mxCell><mxCell id="rRgUCX8sxpJ9eBNvkMSi-13" value="Player" style="swimlane;fontStyle=1;align=center;verticalAlign=top;childLayout=stackLayout;horizontal=1;startSize=26;horizontalStack=0;resizeParent=1;resizeParentMax=0;resizeLast=0;collapsible=1;marginBottom=0;" parent="1" vertex="1"><mxGeometry x="-1576" y="710" width="200" height="74" as="geometry"/></mxCell><mxCell id="rRgUCX8sxpJ9eBNvkMSi-15" value="" style="line;strokeWidth=1;fillColor=none;align=left;verticalAlign=middle;spacingTop=-1;spacingLeft=3;spacingRight=3;rotatable=0;labelPosition=right;points=[];portConstraint=eastwest;" parent="rRgUCX8sxpJ9eBNvkMSi-13" vertex="1"><mxGeometry y="26" width="200" height="8" as="geometry"/></mxCell><mxCell id="rRgUCX8sxpJ9eBNvkMSi-16" value="+ setWeapon(IShootable): void" style="text;strokeColor=none;fillColor=none;align=left;verticalAlign=top;spacingLeft=4;spacingRight=4;overflow=hidden;rotatable=0;points=[[0,0.5],[1,0.5]];portConstraint=eastwest;" parent="rRgUCX8sxpJ9eBNvkMSi-13" vertex="1"><mxGeometry y="34" width="200" height="40" as="geometry"/></mxCell><mxCell id="rRgUCX8sxpJ9eBNvkMSi-17" value="Barricade" style="swimlane;fontStyle=1;align=center;verticalAlign=top;childLayout=stackLayout;horizontal=1;startSize=26;horizontalStack=0;resizeParent=1;resizeParentMax=0;resizeLast=0;collapsible=1;marginBottom=0;" parent="1" vertex="1"><mxGeometry x="-1474" y="1333" width="160" height="86" as="geometry"/></mxCell><mxCell id="rRgUCX8sxpJ9eBNvkMSi-18" value="- x: double" style="text;strokeColor=none;fillColor=none;align=left;verticalAlign=top;spacingLeft=4;spacingRight=4;overflow=hidden;rotatable=0;points=[[0,0.5],[1,0.5]];portConstraint=eastwest;" parent="rRgUCX8sxpJ9eBNvkMSi-17" vertex="1"><mxGeometry y="26" width="160" height="26" as="geometry"/></mxCell><mxCell id="rRgUCX8sxpJ9eBNvkMSi-19" value="" style="line;strokeWidth=1;fillColor=none;align=left;verticalAlign=middle;spacingTop=-1;spacingLeft=3;spacingRight=3;rotatable=0;labelPosition=right;points=[];portConstraint=eastwest;" parent="rRgUCX8sxpJ9eBNvkMSi-17" vertex="1"><mxGeometry y="52" width="160" height="8" as="geometry"/></mxCell><mxCell id="rRgUCX8sxpJ9eBNvkMSi-20" value="+ getX(): double" style="text;strokeColor=none;fillColor=none;align=left;verticalAlign=top;spacingLeft=4;spacingRight=4;overflow=hidden;rotatable=0;points=[[0,0.5],[1,0.5]];portConstraint=eastwest;" parent="rRgUCX8sxpJ9eBNvkMSi-17" vertex="1"><mxGeometry y="60" width="160" height="26" as="geometry"/></mxCell><mxCell id="45" style="edgeStyle=orthogonalEdgeStyle;rounded=0;orthogonalLoop=1;jettySize=auto;html=1;entryX=1.013;entryY=0.95;entryDx=0;entryDy=0;entryPerimeter=0;endArrow=block;endFill=0;" parent="1" source="rRgUCX8sxpJ9eBNvkMSi-25" target="43" edge="1"><mxGeometry relative="1" as="geometry"><mxPoint x="-1019" y="190" as="sourcePoint"/></mxGeometry></mxCell><mxCell id="rRgUCX8sxpJ9eBNvkMSi-25" value="EnemySpawner" style="swimlane;fontStyle=1;align=center;verticalAlign=top;childLayout=stackLayout;horizontal=1;startSize=26;horizontalStack=0;resizeParent=1;resizeParentMax=0;resizeLast=0;collapsible=1;marginBottom=0;" parent="1" vertex="1"><mxGeometry x="-1160" y="162" width="160" height="104" as="geometry"/></mxCell><mxCell id="rRgUCX8sxpJ9eBNvkMSi-28" value="- randomY(): double" style="text;strokeColor=none;fillColor=none;align=left;verticalAlign=top;spacingLeft=4;spacingRight=4;overflow=hidden;rotatable=0;points=[[0,0.5],[1,0.5]];portConstraint=eastwest;" parent="rRgUCX8sxpJ9eBNvkMSi-25" vertex="1"><mxGeometry y="26" width="160" height="26" as="geometry"/></mxCell><mxCell id="rRgUCX8sxpJ9eBNvkMSi-26" value="- sceneWidth: double" style="text;strokeColor=none;fillColor=none;align=left;verticalAlign=top;spacingLeft=4;spacingRight=4;overflow=hidden;rotatable=0;points=[[0,0.5],[1,0.5]];portConstraint=eastwest;" parent="rRgUCX8sxpJ9eBNvkMSi-25" vertex="1"><mxGeometry y="52" width="160" height="22" as="geometry"/></mxCell><mxCell id="138" value="- sceneHeight: double" style="text;strokeColor=none;fillColor=none;align=left;verticalAlign=top;spacingLeft=4;spacingRight=4;overflow=hidden;rotatable=0;points=[[0,0.5],[1,0.5]];portConstraint=eastwest;" vertex="1" parent="rRgUCX8sxpJ9eBNvkMSi-25"><mxGeometry y="74" width="160" height="22" as="geometry"/></mxCell><mxCell id="rRgUCX8sxpJ9eBNvkMSi-27" value="" style="line;strokeWidth=1;fillColor=none;align=left;verticalAlign=middle;spacingTop=-1;spacingLeft=3;spacingRight=3;rotatable=0;labelPosition=right;points=[];portConstraint=eastwest;" parent="rRgUCX8sxpJ9eBNvkMSi-25" vertex="1"><mxGeometry y="96" width="160" height="8" as="geometry"/></mxCell><mxCell id="60" style="edgeStyle=orthogonalEdgeStyle;rounded=0;orthogonalLoop=1;jettySize=auto;html=1;entryX=0;entryY=0.25;entryDx=0;entryDy=0;dashed=1;" parent="1" source="rRgUCX8sxpJ9eBNvkMSi-29" target="54" edge="1"><mxGeometry relative="1" as="geometry"><Array as="points"><mxPoint x="-2223" y="1045"/></Array></mxGeometry></mxCell><mxCell id="66" style="edgeStyle=orthogonalEdgeStyle;rounded=0;orthogonalLoop=1;jettySize=auto;html=1;dashed=1;entryX=0;entryY=0.5;entryDx=0;entryDy=0;exitX=1;exitY=0.5;exitDx=0;exitDy=0;" parent="1" source="231" target="64" edge="1"><mxGeometry relative="1" as="geometry"><Array as="points"><mxPoint x="-1983" y="1230"/></Array><mxPoint x="-893" y="1092" as="targetPoint"/></mxGeometry></mxCell><mxCell id="70" style="edgeStyle=orthogonalEdgeStyle;rounded=0;orthogonalLoop=1;jettySize=auto;html=1;entryX=0.5;entryY=1;entryDx=0;entryDy=0;exitX=1;exitY=0.25;exitDx=0;exitDy=0;endArrow=block;endFill=0;" parent="1" source="rRgUCX8sxpJ9eBNvkMSi-29" target="67" edge="1"><mxGeometry relative="1" as="geometry"><Array as="points"><mxPoint x="-2120" y="1112"/><mxPoint x="-1183" y="1112"/></Array></mxGeometry></mxCell><mxCell id="244" style="edgeStyle=orthogonalEdgeStyle;rounded=0;orthogonalLoop=1;jettySize=auto;html=1;entryX=0;entryY=0.25;entryDx=0;entryDy=0;dashed=1;endArrow=block;endFill=0;" edge="1" parent="1" source="rRgUCX8sxpJ9eBNvkMSi-29" target="56"><mxGeometry relative="1" as="geometry"><Array as="points"><mxPoint x="-2223" y="952"/></Array></mxGeometry></mxCell><mxCell id="rRgUCX8sxpJ9eBNvkMSi-29" value="Projectile&#10;" style="swimlane;fontStyle=1;align=center;verticalAlign=top;childLayout=stackLayout;horizontal=1;startSize=26;horizontalStack=0;resizeParent=1;resizeParentMax=0;resizeLast=0;collapsible=1;marginBottom=0;" parent="1" vertex="1"><mxGeometry x="-2280" y="1191" width="160" height="86" as="geometry"/></mxCell><mxCell id="231" value="# damage: int" style="text;strokeColor=none;fillColor=none;align=left;verticalAlign=top;spacingLeft=4;spacingRight=4;overflow=hidden;rotatable=0;points=[[0,0.5],[1,0.5]];portConstraint=eastwest;" vertex="1" parent="rRgUCX8sxpJ9eBNvkMSi-29"><mxGeometry y="26" width="160" height="26" as="geometry"/></mxCell><mxCell id="rRgUCX8sxpJ9eBNvkMSi-31" value="" style="line;strokeWidth=1;fillColor=none;align=left;verticalAlign=middle;spacingTop=-1;spacingLeft=3;spacingRight=3;rotatable=0;labelPosition=right;points=[];portConstraint=eastwest;" parent="rRgUCX8sxpJ9eBNvkMSi-29" vertex="1"><mxGeometry y="52" width="160" height="8" as="geometry"/></mxCell><mxCell id="rRgUCX8sxpJ9eBNvkMSi-32" value="+ shoot(): void" style="text;strokeColor=none;fillColor=none;align=left;verticalAlign=top;spacingLeft=4;spacingRight=4;overflow=hidden;rotatable=0;points=[[0,0.5],[1,0.5]];portConstraint=eastwest;" parent="rRgUCX8sxpJ9eBNvkMSi-29" vertex="1"><mxGeometry y="60" width="160" height="26" as="geometry"/></mxCell><mxCell id="72" style="edgeStyle=orthogonalEdgeStyle;rounded=0;orthogonalLoop=1;jettySize=auto;html=1;entryX=1;entryY=0.25;entryDx=0;entryDy=0;endArrow=block;endFill=0;dashed=1;" parent="1" source="rRgUCX8sxpJ9eBNvkMSi-33" target="56" edge="1"><mxGeometry relative="1" as="geometry"><Array as="points"><mxPoint x="-1563" y="952"/></Array></mxGeometry></mxCell><mxCell id="rRgUCX8sxpJ9eBNvkMSi-33" value="Powerup" style="swimlane;fontStyle=1;align=center;verticalAlign=top;childLayout=stackLayout;horizontal=1;startSize=26;horizontalStack=0;resizeParent=1;resizeParentMax=0;resizeLast=0;collapsible=1;marginBottom=0;" parent="1" vertex="1"><mxGeometry x="-1576" y="932" width="160" height="34" as="geometry"/></mxCell><mxCell id="rRgUCX8sxpJ9eBNvkMSi-35" value="" style="line;strokeWidth=1;fillColor=none;align=left;verticalAlign=middle;spacingTop=-1;spacingLeft=3;spacingRight=3;rotatable=0;labelPosition=right;points=[];portConstraint=eastwest;" parent="rRgUCX8sxpJ9eBNvkMSi-33" vertex="1"><mxGeometry y="26" width="160" height="8" as="geometry"/></mxCell><mxCell id="rRgUCX8sxpJ9eBNvkMSi-37" value="GameState&#10;" style="swimlane;fontStyle=1;align=center;verticalAlign=top;childLayout=stackLayout;horizontal=1;startSize=26;horizontalStack=0;resizeParent=1;resizeParentMax=0;resizeLast=0;collapsible=1;marginBottom=0;" parent="1" vertex="1"><mxGeometry x="-1083" y="1022" width="230" height="216" as="geometry"/></mxCell><mxCell id="208" value="- playerScore: int" style="text;strokeColor=none;fillColor=none;align=left;verticalAlign=top;spacingLeft=4;spacingRight=4;overflow=hidden;rotatable=0;points=[[0,0.5],[1,0.5]];portConstraint=eastwest;" vertex="1" parent="rRgUCX8sxpJ9eBNvkMSi-37"><mxGeometry y="26" width="230" height="26" as="geometry"/></mxCell><mxCell id="rRgUCX8sxpJ9eBNvkMSi-38" value="- killedEnemyCount: int" style="text;strokeColor=none;fillColor=none;align=left;verticalAlign=top;spacingLeft=4;spacingRight=4;overflow=hidden;rotatable=0;points=[[0,0.5],[1,0.5]];portConstraint=eastwest;" parent="rRgUCX8sxpJ9eBNvkMSi-37" vertex="1"><mxGeometry y="52" width="230" height="26" as="geometry"/></mxCell><mxCell id="rRgUCX8sxpJ9eBNvkMSi-39" value="" style="line;strokeWidth=1;fillColor=none;align=left;verticalAlign=middle;spacingTop=-1;spacingLeft=3;spacingRight=3;rotatable=0;labelPosition=right;points=[];portConstraint=eastwest;" parent="rRgUCX8sxpJ9eBNvkMSi-37" vertex="1"><mxGeometry y="78" width="230" height="8" as="geometry"/></mxCell><mxCell id="rRgUCX8sxpJ9eBNvkMSi-40" value="+ incrementKilledEnemyCount(): void" style="text;strokeColor=none;fillColor=none;align=left;verticalAlign=top;spacingLeft=4;spacingRight=4;overflow=hidden;rotatable=0;points=[[0,0.5],[1,0.5]];portConstraint=eastwest;" parent="rRgUCX8sxpJ9eBNvkMSi-37" vertex="1"><mxGeometry y="86" width="230" height="26" as="geometry"/></mxCell><mxCell id="209" value="+ incrementPlayerScore(int): void" style="text;strokeColor=none;fillColor=none;align=left;verticalAlign=top;spacingLeft=4;spacingRight=4;overflow=hidden;rotatable=0;points=[[0,0.5],[1,0.5]];portConstraint=eastwest;" vertex="1" parent="rRgUCX8sxpJ9eBNvkMSi-37"><mxGeometry y="112" width="230" height="26" as="geometry"/></mxCell><mxCell id="210" value="+ getKilledEnemyCount(): int" style="text;strokeColor=none;fillColor=none;align=left;verticalAlign=top;spacingLeft=4;spacingRight=4;overflow=hidden;rotatable=0;points=[[0,0.5],[1,0.5]];portConstraint=eastwest;" vertex="1" parent="rRgUCX8sxpJ9eBNvkMSi-37"><mxGeometry y="138" width="230" height="26" as="geometry"/></mxCell><mxCell id="211" value="+ getPlayerScore(): int" style="text;strokeColor=none;fillColor=none;align=left;verticalAlign=top;spacingLeft=4;spacingRight=4;overflow=hidden;rotatable=0;points=[[0,0.5],[1,0.5]];portConstraint=eastwest;" vertex="1" parent="rRgUCX8sxpJ9eBNvkMSi-37"><mxGeometry y="164" width="230" height="26" as="geometry"/></mxCell><mxCell id="212" value="+ resetState(): void" style="text;strokeColor=none;fillColor=none;align=left;verticalAlign=top;spacingLeft=4;spacingRight=4;overflow=hidden;rotatable=0;points=[[0,0.5],[1,0.5]];portConstraint=eastwest;" vertex="1" parent="rRgUCX8sxpJ9eBNvkMSi-37"><mxGeometry y="190" width="230" height="26" as="geometry"/></mxCell><mxCell id="19" style="edgeStyle=orthogonalEdgeStyle;rounded=0;orthogonalLoop=1;jettySize=auto;html=1;exitX=0.5;exitY=0;exitDx=0;exitDy=0;entryX=0.456;entryY=1;entryDx=0;entryDy=0;entryPerimeter=0;endArrow=block;endFill=0;" parent="1" source="rRgUCX8sxpJ9eBNvkMSi-45" target="9" edge="1"><mxGeometry relative="1" as="geometry"/></mxCell><mxCell id="rRgUCX8sxpJ9eBNvkMSi-45" value="SettingsScene" style="swimlane;fontStyle=1;align=center;verticalAlign=top;childLayout=stackLayout;horizontal=1;startSize=26;horizontalStack=0;resizeParent=1;resizeParentMax=0;resizeLast=0;collapsible=1;marginBottom=0;" parent="1" vertex="1"><mxGeometry x="-1700" y="162" width="160" height="34" as="geometry"/></mxCell><mxCell id="rRgUCX8sxpJ9eBNvkMSi-47" value="" style="line;strokeWidth=1;fillColor=none;align=left;verticalAlign=middle;spacingTop=-1;spacingLeft=3;spacingRight=3;rotatable=0;labelPosition=right;points=[];portConstraint=eastwest;" parent="rRgUCX8sxpJ9eBNvkMSi-45" vertex="1"><mxGeometry y="26" width="160" height="8" as="geometry"/></mxCell><mxCell id="71" style="edgeStyle=orthogonalEdgeStyle;rounded=0;orthogonalLoop=1;jettySize=auto;html=1;entryX=0.5;entryY=1;entryDx=0;entryDy=0;endArrow=block;endFill=0;" parent="1" source="rRgUCX8sxpJ9eBNvkMSi-49" target="67" edge="1"><mxGeometry relative="1" as="geometry"/></mxCell><mxCell id="rRgUCX8sxpJ9eBNvkMSi-49" value="LivingEntity&#10;" style="swimlane;fontStyle=1;align=center;verticalAlign=top;childLayout=stackLayout;horizontal=1;startSize=26;horizontalStack=0;resizeParent=1;resizeParentMax=0;resizeLast=0;collapsible=1;marginBottom=0;" parent="1" vertex="1"><mxGeometry x="-1673" y="1132" width="160" height="190" as="geometry"/></mxCell><mxCell id="rRgUCX8sxpJ9eBNvkMSi-50" value="- health: int" style="text;strokeColor=none;fillColor=none;align=left;verticalAlign=top;spacingLeft=4;spacingRight=4;overflow=hidden;rotatable=0;points=[[0,0.5],[1,0.5]];portConstraint=eastwest;" parent="rRgUCX8sxpJ9eBNvkMSi-49" vertex="1"><mxGeometry y="26" width="160" height="26" as="geometry"/></mxCell><mxCell id="rRgUCX8sxpJ9eBNvkMSi-51" value="" style="line;strokeWidth=1;fillColor=none;align=left;verticalAlign=middle;spacingTop=-1;spacingLeft=3;spacingRight=3;rotatable=0;labelPosition=right;points=[];portConstraint=eastwest;" parent="rRgUCX8sxpJ9eBNvkMSi-49" vertex="1"><mxGeometry y="52" width="160" height="8" as="geometry"/></mxCell><mxCell id="235" value="# onDeath(): void" style="text;strokeColor=none;fillColor=none;align=left;verticalAlign=top;spacingLeft=4;spacingRight=4;overflow=hidden;rotatable=0;points=[[0,0.5],[1,0.5]];portConstraint=eastwest;" vertex="1" parent="rRgUCX8sxpJ9eBNvkMSi-49"><mxGeometry y="60" width="160" height="26" as="geometry"/></mxCell><mxCell id="236" value="# onHit(Collider): void" style="text;strokeColor=none;fillColor=none;align=left;verticalAlign=top;spacingLeft=4;spacingRight=4;overflow=hidden;rotatable=0;points=[[0,0.5],[1,0.5]];portConstraint=eastwest;" vertex="1" parent="rRgUCX8sxpJ9eBNvkMSi-49"><mxGeometry y="86" width="160" height="26" as="geometry"/></mxCell><mxCell id="234" value="# isDead(): boolean" style="text;strokeColor=none;fillColor=none;align=left;verticalAlign=top;spacingLeft=4;spacingRight=4;overflow=hidden;rotatable=0;points=[[0,0.5],[1,0.5]];portConstraint=eastwest;" vertex="1" parent="rRgUCX8sxpJ9eBNvkMSi-49"><mxGeometry y="112" width="160" height="26" as="geometry"/></mxCell><mxCell id="233" value="# getHealth(): int&#10;" style="text;strokeColor=none;fillColor=none;align=left;verticalAlign=top;spacingLeft=4;spacingRight=4;overflow=hidden;rotatable=0;points=[[0,0.5],[1,0.5]];portConstraint=eastwest;" vertex="1" parent="rRgUCX8sxpJ9eBNvkMSi-49"><mxGeometry y="138" width="160" height="26" as="geometry"/></mxCell><mxCell id="rRgUCX8sxpJ9eBNvkMSi-52" value="# removeHealth(int): void" style="text;strokeColor=none;fillColor=none;align=left;verticalAlign=top;spacingLeft=4;spacingRight=4;overflow=hidden;rotatable=0;points=[[0,0.5],[1,0.5]];portConstraint=eastwest;" parent="rRgUCX8sxpJ9eBNvkMSi-49" vertex="1"><mxGeometry y="164" width="160" height="26" as="geometry"/></mxCell><mxCell id="80" style="edgeStyle=orthogonalEdgeStyle;rounded=0;orthogonalLoop=1;jettySize=auto;html=1;entryX=0.5;entryY=1;entryDx=0;entryDy=0;endArrow=block;endFill=0;" parent="1" source="rRgUCX8sxpJ9eBNvkMSi-53" target="78" edge="1"><mxGeometry relative="1" as="geometry"/></mxCell><mxCell id="92" style="edgeStyle=orthogonalEdgeStyle;rounded=0;orthogonalLoop=1;jettySize=auto;html=1;dashed=1;endArrow=block;endFill=0;entryX=1;entryY=0.25;entryDx=0;entryDy=0;" parent="1" source="rRgUCX8sxpJ9eBNvkMSi-53" target="82" edge="1"><mxGeometry relative="1" as="geometry"/></mxCell><mxCell id="187" style="edgeStyle=orthogonalEdgeStyle;rounded=0;orthogonalLoop=1;jettySize=auto;html=1;entryX=1.002;entryY=0.366;entryDx=0;entryDy=0;entryPerimeter=0;endArrow=classicThin;endFill=0;dashed=1;" edge="1" parent="1" source="rRgUCX8sxpJ9eBNvkMSi-53" target="81"><mxGeometry relative="1" as="geometry"/></mxCell><mxCell id="rRgUCX8sxpJ9eBNvkMSi-53" value="Button&#10;" style="swimlane;fontStyle=3;align=center;verticalAlign=top;childLayout=stackLayout;horizontal=1;startSize=26;horizontalStack=0;resizeParent=1;resizeParentMax=0;resizeLast=0;collapsible=1;marginBottom=0;" parent="1" vertex="1"><mxGeometry x="-2035" y="630.5" width="160" height="34" as="geometry"/></mxCell><mxCell id="rRgUCX8sxpJ9eBNvkMSi-55" value="" style="line;strokeWidth=1;fillColor=none;align=left;verticalAlign=middle;spacingTop=-1;spacingLeft=3;spacingRight=3;rotatable=0;labelPosition=right;points=[];portConstraint=eastwest;" parent="rRgUCX8sxpJ9eBNvkMSi-53" vertex="1"><mxGeometry y="26" width="160" height="8" as="geometry"/></mxCell><mxCell id="10" style="edgeStyle=orthogonalEdgeStyle;rounded=0;orthogonalLoop=1;jettySize=auto;html=1;exitX=0.5;exitY=0;exitDx=0;exitDy=0;entryX=0.219;entryY=1.025;entryDx=0;entryDy=0;entryPerimeter=0;endArrow=block;endFill=0;" parent="1" source="rRgUCX8sxpJ9eBNvkMSi-63" target="9" edge="1"><mxGeometry relative="1" as="geometry"/></mxCell><mxCell id="rRgUCX8sxpJ9eBNvkMSi-63" value="MenuScene&#10;" style="swimlane;fontStyle=1;align=center;verticalAlign=top;childLayout=stackLayout;horizontal=1;startSize=26;horizontalStack=0;resizeParent=1;resizeParentMax=0;resizeLast=0;collapsible=1;marginBottom=0;" parent="1" vertex="1"><mxGeometry x="-1875" y="162" width="160" height="34" as="geometry"/></mxCell><mxCell id="rRgUCX8sxpJ9eBNvkMSi-65" value="" style="line;strokeWidth=1;fillColor=none;align=left;verticalAlign=middle;spacingTop=-1;spacingLeft=3;spacingRight=3;rotatable=0;labelPosition=right;points=[];portConstraint=eastwest;" parent="rRgUCX8sxpJ9eBNvkMSi-63" vertex="1"><mxGeometry y="26" width="160" height="8" as="geometry"/></mxCell><mxCell id="rRgUCX8sxpJ9eBNvkMSi-75" value="Zombie" style="swimlane;fontStyle=1;align=center;verticalAlign=top;childLayout=stackLayout;horizontal=1;startSize=26;horizontalStack=0;resizeParent=1;resizeParentMax=0;resizeLast=0;collapsible=1;marginBottom=0;" parent="1" vertex="1"><mxGeometry x="-2025" y="1548" width="160" height="34" as="geometry"/></mxCell><mxCell id="rRgUCX8sxpJ9eBNvkMSi-76" value="" style="line;strokeWidth=1;fillColor=none;align=left;verticalAlign=middle;spacingTop=-1;spacingLeft=3;spacingRight=3;rotatable=0;labelPosition=right;points=[];portConstraint=eastwest;" parent="rRgUCX8sxpJ9eBNvkMSi-75" vertex="1"><mxGeometry y="26" width="160" height="8" as="geometry"/></mxCell><mxCell id="rRgUCX8sxpJ9eBNvkMSi-78" value="Car&#10;" style="swimlane;fontStyle=1;align=center;verticalAlign=top;childLayout=stackLayout;horizontal=1;startSize=26;horizontalStack=0;resizeParent=1;resizeParentMax=0;resizeLast=0;collapsible=1;marginBottom=0;" parent="1" vertex="1"><mxGeometry x="-1685" y="1548" width="160" height="34" as="geometry"/></mxCell><mxCell id="rRgUCX8sxpJ9eBNvkMSi-79" value="" style="line;strokeWidth=1;fillColor=none;align=left;verticalAlign=middle;spacingTop=-1;spacingLeft=3;spacingRight=3;rotatable=0;labelPosition=right;points=[];portConstraint=eastwest;" parent="rRgUCX8sxpJ9eBNvkMSi-78" vertex="1"><mxGeometry y="26" width="160" height="8" as="geometry"/></mxCell><mxCell id="rRgUCX8sxpJ9eBNvkMSi-81" value="Dog" style="swimlane;fontStyle=1;align=center;verticalAlign=top;childLayout=stackLayout;horizontal=1;startSize=26;horizontalStack=0;resizeParent=1;resizeParentMax=0;resizeLast=0;collapsible=1;marginBottom=0;" parent="1" vertex="1"><mxGeometry x="-1855" y="1548" width="160" height="34" as="geometry"/></mxCell><mxCell id="rRgUCX8sxpJ9eBNvkMSi-82" value="" style="line;strokeWidth=1;fillColor=none;align=left;verticalAlign=middle;spacingTop=-1;spacingLeft=3;spacingRight=3;rotatable=0;labelPosition=right;points=[];portConstraint=eastwest;" parent="rRgUCX8sxpJ9eBNvkMSi-81" vertex="1"><mxGeometry y="26" width="160" height="8" as="geometry"/></mxCell><mxCell id="rRgUCX8sxpJ9eBNvkMSi-92" value="BulletProjectile&#10;" style="swimlane;fontStyle=1;align=center;verticalAlign=top;childLayout=stackLayout;horizontal=1;startSize=26;horizontalStack=0;resizeParent=1;resizeParentMax=0;resizeLast=0;collapsible=1;marginBottom=0;" parent="1" vertex="1"><mxGeometry x="-2090" y="1385" width="160" height="34" as="geometry"/></mxCell><mxCell id="rRgUCX8sxpJ9eBNvkMSi-94" value="" style="line;strokeWidth=1;fillColor=none;align=left;verticalAlign=middle;spacingTop=-1;spacingLeft=3;spacingRight=3;rotatable=0;labelPosition=right;points=[];portConstraint=eastwest;" parent="rRgUCX8sxpJ9eBNvkMSi-92" vertex="1"><mxGeometry y="26" width="160" height="8" as="geometry"/></mxCell><mxCell id="rRgUCX8sxpJ9eBNvkMSi-96" value="ExplodingProjectile" style="swimlane;fontStyle=1;align=center;verticalAlign=top;childLayout=stackLayout;horizontal=1;startSize=26;horizontalStack=0;resizeParent=1;resizeParentMax=0;resizeLast=0;collapsible=1;marginBottom=0;" parent="1" vertex="1"><mxGeometry x="-2285" y="1385" width="160" height="34" as="geometry"/></mxCell><mxCell id="rRgUCX8sxpJ9eBNvkMSi-98" value="" style="line;strokeWidth=1;fillColor=none;align=left;verticalAlign=middle;spacingTop=-1;spacingLeft=3;spacingRight=3;rotatable=0;labelPosition=right;points=[];portConstraint=eastwest;" parent="rRgUCX8sxpJ9eBNvkMSi-96" vertex="1"><mxGeometry y="26" width="160" height="8" as="geometry"/></mxCell><mxCell id="rRgUCX8sxpJ9eBNvkMSi-100" value="FireProjectile" style="swimlane;fontStyle=1;align=center;verticalAlign=top;childLayout=stackLayout;horizontal=1;startSize=26;horizontalStack=0;resizeParent=1;resizeParentMax=0;resizeLast=0;collapsible=1;marginBottom=0;" parent="1" vertex="1"><mxGeometry x="-2480" y="1385" width="160" height="34" as="geometry"/></mxCell><mxCell id="rRgUCX8sxpJ9eBNvkMSi-102" value="" style="line;strokeWidth=1;fillColor=none;align=left;verticalAlign=middle;spacingTop=-1;spacingLeft=3;spacingRight=3;rotatable=0;labelPosition=right;points=[];portConstraint=eastwest;" parent="rRgUCX8sxpJ9eBNvkMSi-100" vertex="1"><mxGeometry y="26" width="160" height="8" as="geometry"/></mxCell><mxCell id="100" style="edgeStyle=orthogonalEdgeStyle;rounded=0;orthogonalLoop=1;jettySize=auto;html=1;endArrow=blockThin;endFill=0;entryX=1;entryY=0.25;entryDx=0;entryDy=0;" parent="1" source="rRgUCX8sxpJ9eBNvkMSi-108" edge="1" target="41"><mxGeometry relative="1" as="geometry"><mxPoint x="-1040" y="12" as="targetPoint"/><Array as="points"><mxPoint x="-1065" y="145"/><mxPoint x="-1065" y="19"/></Array></mxGeometry></mxCell><mxCell id="101" style="edgeStyle=orthogonalEdgeStyle;rounded=0;orthogonalLoop=1;jettySize=auto;html=1;entryX=0.5;entryY=1;entryDx=0;entryDy=0;endArrow=blockThin;endFill=0;dashed=1;" parent="1" source="rRgUCX8sxpJ9eBNvkMSi-108" target="yVR33be_TMwlWNIB3A---44" edge="1"><mxGeometry relative="1" as="geometry"/></mxCell><mxCell id="rRgUCX8sxpJ9eBNvkMSi-108" value="Gun" style="swimlane;fontStyle=1;align=center;verticalAlign=top;childLayout=stackLayout;horizontal=1;startSize=26;horizontalStack=0;resizeParent=1;resizeParentMax=0;resizeLast=0;collapsible=1;marginBottom=0;" parent="1" vertex="1"><mxGeometry x="-1048" y="120" width="160" height="34" as="geometry"/></mxCell><mxCell id="rRgUCX8sxpJ9eBNvkMSi-110" value="" style="line;strokeWidth=1;fillColor=none;align=left;verticalAlign=middle;spacingTop=-1;spacingLeft=3;spacingRight=3;rotatable=0;labelPosition=right;points=[];portConstraint=eastwest;" parent="rRgUCX8sxpJ9eBNvkMSi-108" vertex="1"><mxGeometry y="26" width="160" height="8" as="geometry"/></mxCell><mxCell id="rRgUCX8sxpJ9eBNvkMSi-124" value="" style="endArrow=block;endSize=16;endFill=0;html=1;rounded=0;exitX=0.5;exitY=0;exitDx=0;exitDy=0;entryX=0.25;entryY=1;entryDx=0;entryDy=0;" parent="1" source="rRgUCX8sxpJ9eBNvkMSi-75" target="rRgUCX8sxpJ9eBNvkMSi-5" edge="1"><mxGeometry width="160" relative="1" as="geometry"><mxPoint x="-143" y="558" as="sourcePoint"/><mxPoint x="-507.96000000000004" y="582.002" as="targetPoint"/></mxGeometry></mxCell><mxCell id="rRgUCX8sxpJ9eBNvkMSi-125" value="" style="endArrow=block;endSize=16;endFill=0;html=1;rounded=0;exitX=0.5;exitY=0;exitDx=0;exitDy=0;entryX=0.5;entryY=1;entryDx=0;entryDy=0;" parent="1" source="rRgUCX8sxpJ9eBNvkMSi-81" target="rRgUCX8sxpJ9eBNvkMSi-5" edge="1"><mxGeometry width="160" relative="1" as="geometry"><mxPoint x="-653" y="698" as="sourcePoint"/><mxPoint x="-491" y="580.9899999999998" as="targetPoint"/></mxGeometry></mxCell><mxCell id="rRgUCX8sxpJ9eBNvkMSi-126" value="" style="endArrow=block;endSize=16;endFill=0;html=1;rounded=0;exitX=0.5;exitY=0;exitDx=0;exitDy=0;entryX=0.75;entryY=1;entryDx=0;entryDy=0;" parent="1" source="rRgUCX8sxpJ9eBNvkMSi-78" target="rRgUCX8sxpJ9eBNvkMSi-5" edge="1"><mxGeometry width="160" relative="1" as="geometry"><mxPoint x="-483" y="698" as="sourcePoint"/><mxPoint x="-463" y="528" as="targetPoint"/></mxGeometry></mxCell><mxCell id="rRgUCX8sxpJ9eBNvkMSi-127" value="" style="endArrow=block;endSize=16;endFill=0;html=1;rounded=0;exitX=0.5;exitY=0;exitDx=0;exitDy=0;entryX=0.269;entryY=1.192;entryDx=0;entryDy=0;entryPerimeter=0;" parent="1" source="rRgUCX8sxpJ9eBNvkMSi-100" target="rRgUCX8sxpJ9eBNvkMSi-32" edge="1"><mxGeometry width="160" relative="1" as="geometry"><mxPoint x="-483" y="93" as="sourcePoint"/><mxPoint x="-481" y="-4.010000000000218" as="targetPoint"/></mxGeometry></mxCell><mxCell id="rRgUCX8sxpJ9eBNvkMSi-128" value="" style="endArrow=block;endSize=16;endFill=0;html=1;rounded=0;exitX=0.5;exitY=0;exitDx=0;exitDy=0;entryX=0.475;entryY=1.077;entryDx=0;entryDy=0;entryPerimeter=0;" parent="1" source="rRgUCX8sxpJ9eBNvkMSi-96" target="rRgUCX8sxpJ9eBNvkMSi-32" edge="1"><mxGeometry width="160" relative="1" as="geometry"><mxPoint x="-473" y="103" as="sourcePoint"/><mxPoint x="-471" y="5.989999999999782" as="targetPoint"/></mxGeometry></mxCell><mxCell id="rRgUCX8sxpJ9eBNvkMSi-129" value="" style="endArrow=block;endSize=16;endFill=0;html=1;rounded=0;exitX=0.5;exitY=0;exitDx=0;exitDy=0;entryX=0.706;entryY=1.077;entryDx=0;entryDy=0;entryPerimeter=0;" parent="1" source="rRgUCX8sxpJ9eBNvkMSi-92" target="rRgUCX8sxpJ9eBNvkMSi-32" edge="1"><mxGeometry width="160" relative="1" as="geometry"><mxPoint x="-463" y="113" as="sourcePoint"/><mxPoint x="-461" y="15.989999999999782" as="targetPoint"/></mxGeometry></mxCell><mxCell id="rRgUCX8sxpJ9eBNvkMSi-130" value="" style="endArrow=block;endSize=16;endFill=0;html=1;rounded=0;exitX=1;exitY=0.5;exitDx=0;exitDy=0;entryX=0.388;entryY=1;entryDx=0;entryDy=0;entryPerimeter=0;" parent="1" source="rRgUCX8sxpJ9eBNvkMSi-5" target="rRgUCX8sxpJ9eBNvkMSi-52" edge="1"><mxGeometry width="160" relative="1" as="geometry"><mxPoint x="-402.03999999999996" y="545.018" as="sourcePoint"/><mxPoint x="-441" y="640.9899999999998" as="targetPoint"/></mxGeometry></mxCell><mxCell id="rRgUCX8sxpJ9eBNvkMSi-131" value="" style="endArrow=block;endSize=16;endFill=0;html=1;rounded=0;exitX=-0.019;exitY=0.808;exitDx=0;exitDy=0;entryX=0.544;entryY=1.077;entryDx=0;entryDy=0;entryPerimeter=0;exitPerimeter=0;" parent="1" source="rRgUCX8sxpJ9eBNvkMSi-18" target="rRgUCX8sxpJ9eBNvkMSi-52" edge="1"><mxGeometry width="160" relative="1" as="geometry"><mxPoint x="-433" y="748" as="sourcePoint"/><mxPoint x="-431" y="650.9899999999998" as="targetPoint"/></mxGeometry></mxCell><mxCell id="yVR33be_TMwlWNIB3A---2" value="Day-A" style="text;html=1;strokeColor=none;fillColor=none;align=center;verticalAlign=middle;whiteSpace=wrap;rounded=0;fontSize=36;" parent="1" vertex="1"><mxGeometry x="-2300" y="182" width="300" height="60" as="geometry"/></mxCell><mxCell id="yVR33be_TMwlWNIB3A---44" value="&lt;&lt;Interface&gt;&gt;&#10;IShootable" style="swimlane;fontStyle=1;align=center;verticalAlign=top;childLayout=stackLayout;horizontal=1;startSize=26;horizontalStack=0;resizeParent=1;resizeParentMax=0;resizeLast=0;collapsible=1;marginBottom=0;" parent="1" vertex="1"><mxGeometry x="-1048" y="16" width="160" height="66" as="geometry"/></mxCell><mxCell id="134" value="+ shoot(Projectile): void" style="text;strokeColor=none;fillColor=none;align=left;verticalAlign=top;spacingLeft=4;spacingRight=4;overflow=hidden;rotatable=0;points=[[0,0.5],[1,0.5]];portConstraint=eastwest;" vertex="1" parent="yVR33be_TMwlWNIB3A---44"><mxGeometry y="26" width="160" height="40" as="geometry"/></mxCell><mxCell id="2" value="YaegerGame" style="swimlane;fontStyle=1;align=center;verticalAlign=top;childLayout=stackLayout;horizontal=1;startSize=26;horizontalStack=0;resizeParent=1;resizeParentMax=0;resizeLast=0;collapsible=1;marginBottom=0;fillColor=#d5e8d4;strokeColor=#82b366;" parent="1" vertex="1"><mxGeometry x="-1033" y="403" width="160" height="74" as="geometry"/></mxCell><mxCell id="4" value="" style="line;strokeWidth=1;fillColor=none;align=left;verticalAlign=middle;spacingTop=-1;spacingLeft=3;spacingRight=3;rotatable=0;labelPosition=right;points=[];portConstraint=eastwest;" parent="2" vertex="1"><mxGeometry y="26" width="160" height="8" as="geometry"/></mxCell><mxCell id="5" value="+ setupGame(): void&#10;+ setupScenes(): void" style="text;strokeColor=none;fillColor=none;align=left;verticalAlign=top;spacingLeft=4;spacingRight=4;overflow=hidden;rotatable=0;points=[[0,0.5],[1,0.5]];portConstraint=eastwest;" parent="2" vertex="1"><mxGeometry y="34" width="160" height="40" as="geometry"/></mxCell><mxCell id="7" value="StaticScene" style="swimlane;fontStyle=1;align=center;verticalAlign=top;childLayout=stackLayout;horizontal=1;startSize=26;horizontalStack=0;resizeParent=1;resizeParentMax=0;resizeLast=0;collapsible=1;marginBottom=0;fillColor=#d5e8d4;strokeColor=#82b366;" parent="1" vertex="1"><mxGeometry x="-1692" y="8" width="160" height="74" as="geometry"/></mxCell><mxCell id="8" value="" style="line;strokeWidth=1;fillColor=none;align=left;verticalAlign=middle;spacingTop=-1;spacingLeft=3;spacingRight=3;rotatable=0;labelPosition=right;points=[];portConstraint=eastwest;" parent="7" vertex="1"><mxGeometry y="26" width="160" height="8" as="geometry"/></mxCell><mxCell id="9" value="+ setupScene(): void&#10;+ setupEntities(): void" style="text;strokeColor=none;fillColor=none;align=left;verticalAlign=top;spacingLeft=4;spacingRight=4;overflow=hidden;rotatable=0;points=[[0,0.5],[1,0.5]];portConstraint=eastwest;" parent="7" vertex="1"><mxGeometry y="34" width="160" height="40" as="geometry"/></mxCell><mxCell id="20" style="edgeStyle=orthogonalEdgeStyle;rounded=0;orthogonalLoop=1;jettySize=auto;html=1;exitX=0.5;exitY=0;exitDx=0;exitDy=0;entryX=0.731;entryY=0.975;entryDx=0;entryDy=0;entryPerimeter=0;endArrow=block;endFill=0;" parent="1" source="11" target="9" edge="1"><mxGeometry relative="1" as="geometry"/></mxCell><mxCell id="11" value="EndScene" style="swimlane;fontStyle=1;align=center;verticalAlign=top;childLayout=stackLayout;horizontal=1;startSize=26;horizontalStack=0;resizeParent=1;resizeParentMax=0;resizeLast=0;collapsible=1;marginBottom=0;" parent="1" vertex="1"><mxGeometry x="-1520" y="162" width="160" height="34" as="geometry"/></mxCell><mxCell id="13" value="" style="line;strokeWidth=1;fillColor=none;align=left;verticalAlign=middle;spacingTop=-1;spacingLeft=3;spacingRight=3;rotatable=0;labelPosition=right;points=[];portConstraint=eastwest;" parent="11" vertex="1"><mxGeometry y="26" width="160" height="8" as="geometry"/></mxCell><mxCell id="29" style="edgeStyle=orthogonalEdgeStyle;rounded=0;orthogonalLoop=1;jettySize=auto;html=1;exitX=0.5;exitY=0;exitDx=0;exitDy=0;entryX=0.5;entryY=1;entryDx=0;entryDy=0;endArrow=block;endFill=0;" parent="1" source="15" target="26" edge="1"><mxGeometry relative="1" as="geometry"/></mxCell><mxCell id="40" style="edgeStyle=orthogonalEdgeStyle;rounded=0;orthogonalLoop=1;jettySize=auto;html=1;exitX=0.25;exitY=0;exitDx=0;exitDy=0;dashed=1;entryX=1;entryY=0.25;entryDx=0;entryDy=0;" parent="1" source="15" target="37" edge="1"><mxGeometry relative="1" as="geometry"/></mxCell><mxCell id="15" value="GameScene" style="swimlane;fontStyle=1;align=center;verticalAlign=top;childLayout=stackLayout;horizontal=1;startSize=26;horizontalStack=0;resizeParent=1;resizeParentMax=0;resizeLast=0;collapsible=1;marginBottom=0;" parent="1" vertex="1"><mxGeometry x="-1393" y="511" width="180" height="156" as="geometry"/></mxCell><mxCell id="18" value="+ getPlayer(): Player" style="text;strokeColor=none;fillColor=none;align=left;verticalAlign=top;spacingLeft=4;spacingRight=4;overflow=hidden;rotatable=0;points=[[0,0.5],[1,0.5]];portConstraint=eastwest;" parent="15" vertex="1"><mxGeometry y="26" width="180" height="26" as="geometry"/></mxCell><mxCell id="170" value="+ checkLevelProgress(): void" style="text;strokeColor=none;fillColor=none;align=left;verticalAlign=top;spacingLeft=4;spacingRight=4;overflow=hidden;rotatable=0;points=[[0,0.5],[1,0.5]];portConstraint=eastwest;" vertex="1" parent="15"><mxGeometry y="52" width="180" height="26" as="geometry"/></mxCell><mxCell id="171" value="+ updateUserInterface(): void" style="text;strokeColor=none;fillColor=none;align=left;verticalAlign=top;spacingLeft=4;spacingRight=4;overflow=hidden;rotatable=0;points=[[0,0.5],[1,0.5]];portConstraint=eastwest;" vertex="1" parent="15"><mxGeometry y="78" width="180" height="26" as="geometry"/></mxCell><mxCell id="172" value="+ incrementPlayerScore(): void" style="text;strokeColor=none;fillColor=none;align=left;verticalAlign=top;spacingLeft=4;spacingRight=4;overflow=hidden;rotatable=0;points=[[0,0.5],[1,0.5]];portConstraint=eastwest;" vertex="1" parent="15"><mxGeometry y="104" width="180" height="26" as="geometry"/></mxCell><mxCell id="169" value="+ incrementKilledEnemies(): void" style="text;strokeColor=none;fillColor=none;align=left;verticalAlign=top;spacingLeft=4;spacingRight=4;overflow=hidden;rotatable=0;points=[[0,0.5],[1,0.5]];portConstraint=eastwest;" vertex="1" parent="15"><mxGeometry y="130" width="180" height="26" as="geometry"/></mxCell><mxCell id="26" value="DynamicScene" style="swimlane;fontStyle=1;align=center;verticalAlign=top;childLayout=stackLayout;horizontal=1;startSize=26;horizontalStack=0;resizeParent=1;resizeParentMax=0;resizeLast=0;collapsible=1;marginBottom=0;fillColor=#d5e8d4;strokeColor=#82b366;" parent="1" vertex="1"><mxGeometry x="-1730" y="267" width="160" height="74" as="geometry"/></mxCell><mxCell id="27" value="" style="line;strokeWidth=1;fillColor=none;align=left;verticalAlign=middle;spacingTop=-1;spacingLeft=3;spacingRight=3;rotatable=0;labelPosition=right;points=[];portConstraint=eastwest;" parent="26" vertex="1"><mxGeometry y="26" width="160" height="8" as="geometry"/></mxCell><mxCell id="28" value="+ setupScene(): void&#10;+ setupEntities(): void" style="text;strokeColor=none;fillColor=none;align=left;verticalAlign=top;spacingLeft=4;spacingRight=4;overflow=hidden;rotatable=0;points=[[0,0.5],[1,0.5]];portConstraint=eastwest;" parent="26" vertex="1"><mxGeometry y="34" width="160" height="40" as="geometry"/></mxCell><mxCell id="37" value="&lt;&lt;Interface&gt;&gt;&#10;EntitySpawnerContainer" style="swimlane;fontStyle=1;align=center;verticalAlign=top;childLayout=stackLayout;horizontal=1;startSize=40;horizontalStack=0;resizeParent=1;resizeParentMax=0;resizeLast=0;collapsible=1;marginBottom=0;fillColor=#d5e8d4;strokeColor=#82b366;" parent="1" vertex="1"><mxGeometry x="-1953" y="220" width="190" height="80" as="geometry"/></mxCell><mxCell id="39" value="+ setupEntitySpawners(): void" style="text;strokeColor=none;fillColor=none;align=left;verticalAlign=top;spacingLeft=4;spacingRight=4;overflow=hidden;rotatable=0;points=[[0,0.5],[1,0.5]];portConstraint=eastwest;" parent="37" vertex="1"><mxGeometry y="40" width="190" height="40" as="geometry"/></mxCell><mxCell id="41" value="EntitySpawner" style="swimlane;fontStyle=1;align=center;verticalAlign=top;childLayout=stackLayout;horizontal=1;startSize=26;horizontalStack=0;resizeParent=1;resizeParentMax=0;resizeLast=0;collapsible=1;marginBottom=0;fillColor=#d5e8d4;strokeColor=#82b366;" parent="1" vertex="1"><mxGeometry x="-1320" width="160" height="74" as="geometry"/></mxCell><mxCell id="42" value="" style="line;strokeWidth=1;fillColor=none;align=left;verticalAlign=middle;spacingTop=-1;spacingLeft=3;spacingRight=3;rotatable=0;labelPosition=right;points=[];portConstraint=eastwest;" parent="41" vertex="1"><mxGeometry y="26" width="160" height="8" as="geometry"/></mxCell><mxCell id="43" value="# spawnEntities(): void" style="text;strokeColor=none;fillColor=none;align=left;verticalAlign=top;spacingLeft=4;spacingRight=4;overflow=hidden;rotatable=0;points=[[0,0.5],[1,0.5]];portConstraint=eastwest;" parent="41" vertex="1"><mxGeometry y="34" width="160" height="40" as="geometry"/></mxCell><mxCell id="54" value="&lt;&lt;Interface&gt;&gt;&#10;Collider" style="swimlane;fontStyle=1;align=center;verticalAlign=top;childLayout=stackLayout;horizontal=1;startSize=40;horizontalStack=0;resizeParent=1;resizeParentMax=0;resizeLast=0;collapsible=1;marginBottom=0;fillColor=#d5e8d4;strokeColor=#82b366;" parent="1" vertex="1"><mxGeometry x="-2203" y="1032" width="190" height="50" as="geometry"/></mxCell><mxCell id="56" value="&lt;&lt;Interface&gt;&gt;&#10;Collided" style="swimlane;fontStyle=1;align=center;verticalAlign=top;childLayout=stackLayout;horizontal=1;startSize=40;horizontalStack=0;resizeParent=1;resizeParentMax=0;resizeLast=0;collapsible=1;marginBottom=0;fillColor=#d5e8d4;strokeColor=#82b366;" parent="1" vertex="1"><mxGeometry x="-2203" y="932" width="190" height="80" as="geometry"/></mxCell><mxCell id="57" value="+ onCollision(): void" style="text;strokeColor=none;fillColor=none;align=left;verticalAlign=top;spacingLeft=4;spacingRight=4;overflow=hidden;rotatable=0;points=[[0,0.5],[1,0.5]];portConstraint=eastwest;" parent="56" vertex="1"><mxGeometry y="40" width="190" height="40" as="geometry"/></mxCell><mxCell id="64" value="&lt;&lt;Interface&gt;&gt;&#10;SceneBorderCrossingWatcher" style="swimlane;fontStyle=1;align=center;verticalAlign=top;childLayout=stackLayout;horizontal=1;startSize=40;horizontalStack=0;resizeParent=1;resizeParentMax=0;resizeLast=0;collapsible=1;marginBottom=0;fillColor=#d5e8d4;strokeColor=#82b366;" parent="1" vertex="1"><mxGeometry x="-1983" y="1197" width="190" height="80" as="geometry"/></mxCell><mxCell id="65" value="+ notifyBoundaryCrossing(): void" style="text;strokeColor=none;fillColor=none;align=left;verticalAlign=top;spacingLeft=4;spacingRight=4;overflow=hidden;rotatable=0;points=[[0,0.5],[1,0.5]];portConstraint=eastwest;" parent="64" vertex="1"><mxGeometry y="40" width="190" height="40" as="geometry"/></mxCell><mxCell id="67" value="DynamicSpriteEntity" style="swimlane;fontStyle=1;align=center;verticalAlign=top;childLayout=stackLayout;horizontal=1;startSize=26;horizontalStack=0;resizeParent=1;resizeParentMax=0;resizeLast=0;collapsible=1;marginBottom=0;fillColor=#d5e8d4;strokeColor=#82b366;" parent="1" vertex="1"><mxGeometry x="-1263" y="710" width="160" height="34" as="geometry"/></mxCell><mxCell id="68" value="" style="line;strokeWidth=1;fillColor=none;align=left;verticalAlign=middle;spacingTop=-1;spacingLeft=3;spacingRight=3;rotatable=0;labelPosition=right;points=[];portConstraint=eastwest;" parent="67" vertex="1"><mxGeometry y="26" width="160" height="8" as="geometry"/></mxCell><mxCell id="74" value="&lt;&lt;Interface&gt;&gt;&#10;KeyListener" style="swimlane;fontStyle=1;align=center;verticalAlign=top;childLayout=stackLayout;horizontal=1;startSize=40;horizontalStack=0;resizeParent=1;resizeParentMax=0;resizeLast=0;collapsible=1;marginBottom=0;fillColor=#d5e8d4;strokeColor=#82b366;" parent="1" vertex="1"><mxGeometry x="-1913" y="722" width="300" height="80" as="geometry"/></mxCell><mxCell id="75" value="+ onPressedKeysChange(Set&lt;KeyCode&gt; pressedKeys): void" style="text;strokeColor=none;fillColor=none;align=left;verticalAlign=top;spacingLeft=4;spacingRight=4;overflow=hidden;rotatable=0;points=[[0,0.5],[1,0.5]];portConstraint=eastwest;" parent="74" vertex="1"><mxGeometry y="40" width="300" height="40" as="geometry"/></mxCell><mxCell id="78" value="TextEntity" style="swimlane;fontStyle=1;align=center;verticalAlign=top;childLayout=stackLayout;horizontal=1;startSize=26;horizontalStack=0;resizeParent=1;resizeParentMax=0;resizeLast=0;collapsible=1;marginBottom=0;fillColor=#d5e8d4;strokeColor=#82b366;" parent="1" vertex="1"><mxGeometry x="-1953" y="511" width="160" height="34" as="geometry"/></mxCell><mxCell id="79" value="" style="line;strokeWidth=1;fillColor=none;align=left;verticalAlign=middle;spacingTop=-1;spacingLeft=3;spacingRight=3;rotatable=0;labelPosition=right;points=[];portConstraint=eastwest;" parent="78" vertex="1"><mxGeometry y="26" width="160" height="8" as="geometry"/></mxCell><mxCell id="81" value="&lt;&lt;Interface&gt;&gt;&#10;MouseButtonPressedListener" style="swimlane;fontStyle=1;align=center;verticalAlign=top;childLayout=stackLayout;horizontal=1;startSize=40;horizontalStack=0;resizeParent=1;resizeParentMax=0;resizeLast=0;collapsible=1;marginBottom=0;fillColor=#d5e8d4;strokeColor=#82b366;" parent="1" vertex="1"><mxGeometry x="-2300" y="556" width="190" height="66" as="geometry"/></mxCell><mxCell id="87" value="+ onMouseButtonPressed(): void" style="text;strokeColor=none;fillColor=none;align=left;verticalAlign=top;spacingLeft=4;spacingRight=4;overflow=hidden;rotatable=0;points=[[0,0.5],[1,0.5]];portConstraint=eastwest;" parent="81" vertex="1"><mxGeometry y="40" width="190" height="26" as="geometry"/></mxCell><mxCell id="82" value="&lt;&lt;Interface&gt;&gt;&#10;MouseExitListener" style="swimlane;fontStyle=1;align=center;verticalAlign=top;childLayout=stackLayout;horizontal=1;startSize=40;horizontalStack=0;resizeParent=1;resizeParentMax=0;resizeLast=0;collapsible=1;marginBottom=0;fillColor=#d5e8d4;strokeColor=#82b366;" parent="1" vertex="1"><mxGeometry x="-2300" y="708" width="190" height="66" as="geometry"/></mxCell><mxCell id="91" value="+ onMouseExited(): void" style="text;strokeColor=none;fillColor=none;align=left;verticalAlign=top;spacingLeft=4;spacingRight=4;overflow=hidden;rotatable=0;points=[[0,0.5],[1,0.5]];portConstraint=eastwest;" parent="82" vertex="1"><mxGeometry y="40" width="190" height="26" as="geometry"/></mxCell><mxCell id="89" style="edgeStyle=orthogonalEdgeStyle;rounded=0;orthogonalLoop=1;jettySize=auto;html=1;dashed=1;endArrow=block;endFill=0;entryX=1;entryY=0.25;entryDx=0;entryDy=0;" parent="1" source="rRgUCX8sxpJ9eBNvkMSi-53" target="83" edge="1"><mxGeometry relative="1" as="geometry"><mxPoint x="-2110" y="640.9999999999995" as="targetPoint"/></mxGeometry></mxCell><mxCell id="93" value="&lt;&lt;Interface&gt;&gt;&#10;IActavateAble" style="swimlane;fontStyle=1;align=center;verticalAlign=top;childLayout=stackLayout;horizontal=1;startSize=40;horizontalStack=0;resizeParent=1;resizeParentMax=0;resizeLast=0;collapsible=1;marginBottom=0;" parent="1" vertex="1"><mxGeometry x="-1591" y="829.5" width="190" height="66" as="geometry"/></mxCell><mxCell id="232" value="+ activate(): void" style="text;strokeColor=none;fillColor=none;align=left;verticalAlign=top;spacingLeft=4;spacingRight=4;overflow=hidden;rotatable=0;points=[[0,0.5],[1,0.5]];portConstraint=eastwest;" vertex="1" parent="93"><mxGeometry y="40" width="190" height="26" as="geometry"/></mxCell><mxCell id="94" style="edgeStyle=orthogonalEdgeStyle;rounded=0;orthogonalLoop=1;jettySize=auto;html=1;dashed=1;exitX=0.5;exitY=0;exitDx=0;exitDy=0;" parent="1" source="rRgUCX8sxpJ9eBNvkMSi-33" target="93" edge="1"><mxGeometry relative="1" as="geometry"/></mxCell><mxCell id="99" style="edgeStyle=orthogonalEdgeStyle;rounded=0;orthogonalLoop=1;jettySize=auto;html=1;entryX=0.325;entryY=1.033;entryDx=0;entryDy=0;entryPerimeter=0;endArrow=blockThin;endFill=0;exitX=0.5;exitY=0;exitDx=0;exitDy=0;" parent="1" source="95" target="43" edge="1"><mxGeometry relative="1" as="geometry"><mxPoint x="-1267" y="162" as="sourcePoint"/><Array as="points"><mxPoint x="-1267" y="162"/><mxPoint x="-1267" y="118"/></Array></mxGeometry></mxCell><mxCell id="95" value="PowerupSpawner" style="swimlane;fontStyle=1;align=center;verticalAlign=top;childLayout=stackLayout;horizontal=1;startSize=26;horizontalStack=0;resizeParent=1;resizeParentMax=0;resizeLast=0;collapsible=1;marginBottom=0;" parent="1" vertex="1"><mxGeometry x="-1330" y="162" width="160" height="122" as="geometry"/></mxCell><mxCell id="137" value="- maxY: double" style="text;strokeColor=none;fillColor=none;align=left;verticalAlign=top;spacingLeft=4;spacingRight=4;overflow=hidden;rotatable=0;points=[[0,0.5],[1,0.5]];portConstraint=eastwest;" vertex="1" parent="95"><mxGeometry y="26" width="160" height="22" as="geometry"/></mxCell><mxCell id="97" value="" style="line;strokeWidth=1;fillColor=none;align=left;verticalAlign=middle;spacingTop=-1;spacingLeft=3;spacingRight=3;rotatable=0;labelPosition=right;points=[];portConstraint=eastwest;" parent="95" vertex="1"><mxGeometry y="48" width="160" height="8" as="geometry"/></mxCell><mxCell id="96" value="- maxSpawns: int" style="text;strokeColor=none;fillColor=none;align=left;verticalAlign=top;spacingLeft=4;spacingRight=4;overflow=hidden;rotatable=0;points=[[0,0.5],[1,0.5]];portConstraint=eastwest;" parent="95" vertex="1"><mxGeometry y="56" width="160" height="22" as="geometry"/></mxCell><mxCell id="135" value="- spawns: int" style="text;strokeColor=none;fillColor=none;align=left;verticalAlign=top;spacingLeft=4;spacingRight=4;overflow=hidden;rotatable=0;points=[[0,0.5],[1,0.5]];portConstraint=eastwest;" vertex="1" parent="95"><mxGeometry y="78" width="160" height="22" as="geometry"/></mxCell><mxCell id="136" value="- maxX: double" style="text;strokeColor=none;fillColor=none;align=left;verticalAlign=top;spacingLeft=4;spacingRight=4;overflow=hidden;rotatable=0;points=[[0,0.5],[1,0.5]];portConstraint=eastwest;" vertex="1" parent="95"><mxGeometry y="100" width="160" height="22" as="geometry"/></mxCell><mxCell id="114" value="ExitButton" style="swimlane;fontStyle=1;align=center;verticalAlign=top;childLayout=stackLayout;horizontal=1;startSize=26;horizontalStack=0;resizeParent=1;resizeParentMax=0;resizeLast=0;collapsible=1;marginBottom=0;" parent="1" vertex="1"><mxGeometry x="-2133" y="885" width="160" height="34" as="geometry"/></mxCell><mxCell id="116" value="" style="line;strokeWidth=1;fillColor=none;align=left;verticalAlign=middle;spacingTop=-1;spacingLeft=3;spacingRight=3;rotatable=0;labelPosition=right;points=[];portConstraint=eastwest;" parent="114" vertex="1"><mxGeometry y="26" width="160" height="8" as="geometry"/></mxCell><mxCell id="118" value="SettingsButton" style="swimlane;fontStyle=1;align=center;verticalAlign=top;childLayout=stackLayout;horizontal=1;startSize=26;horizontalStack=0;resizeParent=1;resizeParentMax=0;resizeLast=0;collapsible=1;marginBottom=0;" parent="1" vertex="1"><mxGeometry x="-2000" y="822.5" width="160" height="34" as="geometry"/></mxCell><mxCell id="120" value="" style="line;strokeWidth=1;fillColor=none;align=left;verticalAlign=middle;spacingTop=-1;spacingLeft=3;spacingRight=3;rotatable=0;labelPosition=right;points=[];portConstraint=eastwest;" parent="118" vertex="1"><mxGeometry y="26" width="160" height="8" as="geometry"/></mxCell><mxCell id="122" value="StartButton" style="swimlane;fontStyle=1;align=center;verticalAlign=top;childLayout=stackLayout;horizontal=1;startSize=26;horizontalStack=0;resizeParent=1;resizeParentMax=0;resizeLast=0;collapsible=1;marginBottom=0;" parent="1" vertex="1"><mxGeometry x="-2203" y="829.5" width="160" height="34" as="geometry"/></mxCell><mxCell id="124" value="" style="line;strokeWidth=1;fillColor=none;align=left;verticalAlign=middle;spacingTop=-1;spacingLeft=3;spacingRight=3;rotatable=0;labelPosition=right;points=[];portConstraint=eastwest;" parent="122" vertex="1"><mxGeometry y="26" width="160" height="8" as="geometry"/></mxCell><mxCell id="126" value="" style="endArrow=block;endSize=16;endFill=0;html=1;rounded=0;exitX=0.5;exitY=0;exitDx=0;exitDy=0;" parent="1" source="122" target="rRgUCX8sxpJ9eBNvkMSi-53" edge="1"><mxGeometry width="160" relative="1" as="geometry"><mxPoint x="195" y="386.5" as="sourcePoint"/><mxPoint x="648.04" y="663.4920000000002" as="targetPoint"/></mxGeometry></mxCell><mxCell id="127" value="" style="endArrow=block;endSize=16;endFill=0;html=1;rounded=0;exitX=0.5;exitY=0;exitDx=0;exitDy=0;entryX=0.633;entryY=0.973;entryDx=0;entryDy=0;entryPerimeter=0;" parent="1" source="118" target="rRgUCX8sxpJ9eBNvkMSi-55" edge="1"><mxGeometry width="160" relative="1" as="geometry"><mxPoint x="-1418" y="-407.5" as="sourcePoint"/><mxPoint x="-942" y="-143.49800000000005" as="targetPoint"/></mxGeometry></mxCell><mxCell id="128" value="" style="endArrow=block;endSize=16;endFill=0;html=1;rounded=0;exitX=0.544;exitY=0.215;exitDx=0;exitDy=0;exitPerimeter=0;" parent="1" source="114" target="rRgUCX8sxpJ9eBNvkMSi-53" edge="1"><mxGeometry width="160" relative="1" as="geometry"><mxPoint x="-1760" y="822.5" as="sourcePoint"/><mxPoint x="-905.04" y="-143.49800000000005" as="targetPoint"/></mxGeometry></mxCell><mxCell id="130" value="&lt;&lt;Interface&gt;&gt;&#10;Newtonian" style="swimlane;fontStyle=1;align=center;verticalAlign=top;childLayout=stackLayout;horizontal=1;startSize=40;horizontalStack=0;resizeParent=1;resizeParentMax=0;resizeLast=0;collapsible=1;marginBottom=0;fillColor=#d5e8d4;strokeColor=#82b366;" parent="1" vertex="1"><mxGeometry x="-1793" y="612" width="190" height="80" as="geometry"/></mxCell><mxCell id="131" value="+ setGravityConstant(float): void&#10;+ setFrictionConstant(float): void" style="text;strokeColor=none;fillColor=none;align=left;verticalAlign=top;spacingLeft=4;spacingRight=4;overflow=hidden;rotatable=0;points=[[0,0.5],[1,0.5]];portConstraint=eastwest;" parent="130" vertex="1"><mxGeometry y="40" width="190" height="40" as="geometry"/></mxCell><mxCell id="133" style="edgeStyle=orthogonalEdgeStyle;rounded=0;orthogonalLoop=1;jettySize=auto;html=1;dashed=1;entryX=1;entryY=0.5;entryDx=0;entryDy=0;endArrow=block;endFill=0;" parent="1" source="rRgUCX8sxpJ9eBNvkMSi-13" target="56" edge="1"><mxGeometry relative="1" as="geometry"><mxPoint x="-1360" y="972" as="targetPoint"/><Array as="points"><mxPoint x="-1283" y="972"/></Array></mxGeometry></mxCell><mxCell id="139" value="" style="endArrow=none;html=1;rounded=0;" edge="1" parent="1" source="rRgUCX8sxpJ9eBNvkMSi-25" target="15"><mxGeometry relative="1" as="geometry"><mxPoint x="-903" y="392" as="sourcePoint"/><mxPoint x="-743" y="392" as="targetPoint"/></mxGeometry></mxCell><mxCell id="140" value="1" style="resizable=0;html=1;align=right;verticalAlign=bottom;" connectable="0" vertex="1" parent="139"><mxGeometry x="1" relative="1" as="geometry"/></mxCell><mxCell id="141" value="UserInterfaceComponent" style="swimlane;fontStyle=1;align=center;verticalAlign=top;childLayout=stackLayout;horizontal=1;startSize=26;horizontalStack=0;resizeParent=1;resizeParentMax=0;resizeLast=0;collapsible=1;marginBottom=0;" vertex="1" parent="1"><mxGeometry x="-1733" y="511" width="160" height="78" as="geometry"/></mxCell><mxCell id="144" value="+ updateText(String): void" style="text;strokeColor=none;fillColor=none;align=left;verticalAlign=top;spacingLeft=4;spacingRight=4;overflow=hidden;rotatable=0;points=[[0,0.5],[1,0.5]];portConstraint=eastwest;" vertex="1" parent="141"><mxGeometry y="26" width="160" height="26" as="geometry"/></mxCell><mxCell id="175" value="+ getTextEntity(): TextEntity" style="text;strokeColor=none;fillColor=none;align=left;verticalAlign=top;spacingLeft=4;spacingRight=4;overflow=hidden;rotatable=0;points=[[0,0.5],[1,0.5]];portConstraint=eastwest;" vertex="1" parent="141"><mxGeometry y="52" width="160" height="26" as="geometry"/></mxCell><mxCell id="145" value="killedEnemies" style="endArrow=none;html=1;rounded=0;exitX=0;exitY=0;exitDx=0;exitDy=0;entryX=1;entryY=0;entryDx=0;entryDy=0;" edge="1" parent="1" source="15" target="141"><mxGeometry relative="1" as="geometry"><mxPoint x="-1028.8333333333335" y="376" as="sourcePoint"/><mxPoint x="-1240.2916666666665" y="521" as="targetPoint"/></mxGeometry></mxCell><mxCell id="146" value="1" style="resizable=0;html=1;align=right;verticalAlign=bottom;" connectable="0" vertex="1" parent="145"><mxGeometry x="1" relative="1" as="geometry"/></mxCell><mxCell id="153" value="score" style="endArrow=none;html=1;rounded=0;exitX=0;exitY=0.5;exitDx=0;exitDy=0;entryX=1;entryY=0.5;entryDx=0;entryDy=0;" edge="1" parent="1"><mxGeometry relative="1" as="geometry"><mxPoint x="-1393" y="550" as="sourcePoint"/><mxPoint x="-1573" y="550" as="targetPoint"/></mxGeometry></mxCell><mxCell id="154" value="1" style="resizable=0;html=1;align=right;verticalAlign=bottom;" connectable="0" vertex="1" parent="153"><mxGeometry x="1" relative="1" as="geometry"/></mxCell><mxCell id="155" value="enemiesToKill" style="endArrow=none;html=1;rounded=0;entryX=1;entryY=0.5;entryDx=0;entryDy=0;" edge="1" parent="1" source="15" target="175"><mxGeometry relative="1" as="geometry"><mxPoint x="-1383" y="560" as="sourcePoint"/><mxPoint x="-1563" y="560" as="targetPoint"/></mxGeometry></mxCell><mxCell id="156" value="1" style="resizable=0;html=1;align=right;verticalAlign=bottom;" connectable="0" vertex="1" parent="155"><mxGeometry x="1" relative="1" as="geometry"/></mxCell><mxCell id="158" value="" style="endArrow=none;html=1;rounded=0;exitX=1.004;exitY=0.14;exitDx=0;exitDy=0;exitPerimeter=0;" edge="1" parent="1" source="15" target="rRgUCX8sxpJ9eBNvkMSi-1"><mxGeometry relative="1" as="geometry"><mxPoint x="-1028.8333333333335" y="376" as="sourcePoint"/><mxPoint x="-1240.2916666666665" y="521" as="targetPoint"/></mxGeometry></mxCell><mxCell id="159" value="1" style="resizable=0;html=1;align=right;verticalAlign=bottom;" connectable="0" vertex="1" parent="158"><mxGeometry x="1" relative="1" as="geometry"/></mxCell><mxCell id="160" value="Level" style="swimlane;fontStyle=1;align=center;verticalAlign=top;childLayout=stackLayout;horizontal=1;startSize=26;horizontalStack=0;resizeParent=1;resizeParentMax=0;resizeLast=0;collapsible=1;marginBottom=0;" vertex="1" parent="1"><mxGeometry x="-2067" y="330" width="160" height="86" as="geometry"/></mxCell><mxCell id="161" value="+ field: type" style="text;strokeColor=none;fillColor=none;align=left;verticalAlign=top;spacingLeft=4;spacingRight=4;overflow=hidden;rotatable=0;points=[[0,0.5],[1,0.5]];portConstraint=eastwest;" vertex="1" parent="160"><mxGeometry y="26" width="160" height="26" as="geometry"/></mxCell><mxCell id="162" value="" style="line;strokeWidth=1;fillColor=none;align=left;verticalAlign=middle;spacingTop=-1;spacingLeft=3;spacingRight=3;rotatable=0;labelPosition=right;points=[];portConstraint=eastwest;" vertex="1" parent="160"><mxGeometry y="52" width="160" height="8" as="geometry"/></mxCell><mxCell id="163" value="+ method(type): type" style="text;strokeColor=none;fillColor=none;align=left;verticalAlign=top;spacingLeft=4;spacingRight=4;overflow=hidden;rotatable=0;points=[[0,0.5],[1,0.5]];portConstraint=eastwest;" vertex="1" parent="160"><mxGeometry y="60" width="160" height="26" as="geometry"/></mxCell><mxCell id="164" value="" style="endArrow=none;html=1;rounded=0;exitX=0;exitY=0;exitDx=0;exitDy=0;entryX=1;entryY=0.25;entryDx=0;entryDy=0;" edge="1" parent="1" source="15" target="160"><mxGeometry relative="1" as="geometry"><mxPoint x="-1222.3600000000001" y="533.04" as="sourcePoint"/><mxPoint x="-1023" y="589.3883161512026" as="targetPoint"/></mxGeometry></mxCell><mxCell id="165" value="1" style="resizable=0;html=1;align=right;verticalAlign=bottom;" connectable="0" vertex="1" parent="164"><mxGeometry x="1" relative="1" as="geometry"/></mxCell><mxCell id="166" value="" style="endArrow=none;html=1;rounded=0;entryX=0.5;entryY=0;entryDx=0;entryDy=0;" edge="1" parent="1" source="15" target="rRgUCX8sxpJ9eBNvkMSi-13"><mxGeometry relative="1" as="geometry"><mxPoint x="-1222.3600000000001" y="533.04" as="sourcePoint"/><mxPoint x="-1023" y="589.3883161512026" as="targetPoint"/></mxGeometry></mxCell><mxCell id="167" value="1" style="resizable=0;html=1;align=right;verticalAlign=bottom;" connectable="0" vertex="1" parent="166"><mxGeometry x="1" relative="1" as="geometry"/></mxCell><mxCell id="173" value="" style="endArrow=none;html=1;rounded=0;" edge="1" parent="1" source="141" target="78"><mxGeometry relative="1" as="geometry"><mxPoint x="-1383" y="521" as="sourcePoint"/><mxPoint x="-1563" y="407.5" as="targetPoint"/></mxGeometry></mxCell><mxCell id="174" value="1" style="resizable=0;html=1;align=right;verticalAlign=bottom;" connectable="0" vertex="1" parent="173"><mxGeometry x="1" relative="1" as="geometry"/></mxCell><mxCell id="83" value="&lt;&lt;Interface&gt;&gt;&#10;MouseEnterListener" style="swimlane;fontStyle=1;align=center;verticalAlign=top;childLayout=stackLayout;horizontal=1;startSize=40;horizontalStack=0;resizeParent=1;resizeParentMax=0;resizeLast=0;collapsible=1;marginBottom=0;fillColor=#d5e8d4;strokeColor=#82b366;" parent="1" vertex="1"><mxGeometry x="-2300" y="635.5" width="190" height="66" as="geometry"/></mxCell><mxCell id="90" value="+ onMouseEntered(): void" style="text;strokeColor=none;fillColor=none;align=left;verticalAlign=top;spacingLeft=4;spacingRight=4;overflow=hidden;rotatable=0;points=[[0,0.5],[1,0.5]];portConstraint=eastwest;" parent="83" vertex="1"><mxGeometry y="40" width="190" height="26" as="geometry"/></mxCell><mxCell id="176" value="" style="edgeStyle=orthogonalEdgeStyle;rounded=0;orthogonalLoop=1;jettySize=auto;html=1;endArrow=none;endFill=0;dashed=1;entryX=1;entryY=0.25;entryDx=0;entryDy=0;" edge="1" parent="1" source="rRgUCX8sxpJ9eBNvkMSi-53" target="83"><mxGeometry relative="1" as="geometry"><mxPoint x="-2035" y="673.4705882352941" as="sourcePoint"/><mxPoint x="-2110" y="640.9999999999995" as="targetPoint"/></mxGeometry></mxCell><mxCell id="179" value="Color" style="swimlane;fontStyle=1;align=center;verticalAlign=top;childLayout=stackLayout;horizontal=1;startSize=26;horizontalStack=0;resizeParent=1;resizeParentMax=0;resizeLast=0;collapsible=1;marginBottom=0;fillColor=#d5e8d4;strokeColor=#82b366;" vertex="1" parent="1"><mxGeometry x="-2243" y="452" width="160" height="34" as="geometry"/></mxCell><mxCell id="180" value="" style="line;strokeWidth=1;fillColor=none;align=left;verticalAlign=middle;spacingTop=-1;spacingLeft=3;spacingRight=3;rotatable=0;labelPosition=right;points=[];portConstraint=eastwest;" vertex="1" parent="179"><mxGeometry y="26" width="160" height="8" as="geometry"/></mxCell><mxCell id="181" value="" style="endArrow=none;html=1;rounded=0;" edge="1" parent="1" source="rRgUCX8sxpJ9eBNvkMSi-53" target="179"><mxGeometry relative="1" as="geometry"><mxPoint x="-1723" y="524.3389830508477" as="sourcePoint"/><mxPoint x="-1899.8631178707224" y="445.5" as="targetPoint"/></mxGeometry></mxCell><mxCell id="182" value="1" style="resizable=0;html=1;align=right;verticalAlign=bottom;" connectable="0" vertex="1" parent="181"><mxGeometry x="1" relative="1" as="geometry"/></mxCell><mxCell id="186" value="HoverColor" style="edgeLabel;html=1;align=center;verticalAlign=middle;resizable=0;points=[];" vertex="1" connectable="0" parent="181"><mxGeometry x="0.2219" y="3" relative="1" as="geometry"><mxPoint as="offset"/></mxGeometry></mxCell><mxCell id="183" value="" style="endArrow=none;html=1;rounded=0;entryX=0.967;entryY=0.118;entryDx=0;entryDy=0;entryPerimeter=0;" edge="1" parent="1" source="rRgUCX8sxpJ9eBNvkMSi-53" target="180"><mxGeometry relative="1" as="geometry"><mxPoint x="-1962.1199226305607" y="544.5" as="sourcePoint"/><mxPoint x="-2073.4642166344292" y="346" as="targetPoint"/></mxGeometry></mxCell><mxCell id="184" value="1" style="resizable=0;html=1;align=right;verticalAlign=bottom;" connectable="0" vertex="1" parent="183"><mxGeometry x="1" relative="1" as="geometry"/></mxCell><mxCell id="185" value="color" style="edgeLabel;html=1;align=center;verticalAlign=middle;resizable=0;points=[];" vertex="1" connectable="0" parent="183"><mxGeometry x="0.2288" relative="1" as="geometry"><mxPoint as="offset"/></mxGeometry></mxCell><mxCell id="189" value="SceneSwitchButton" style="swimlane;fontStyle=1;align=center;verticalAlign=top;childLayout=stackLayout;horizontal=1;startSize=26;horizontalStack=0;resizeParent=1;resizeParentMax=0;resizeLast=0;collapsible=1;marginBottom=0;" vertex="1" parent="1"><mxGeometry x="-2353" y="863.5" width="160" height="60" as="geometry"/></mxCell><mxCell id="193" value="- targetScene: int" style="text;strokeColor=none;fillColor=none;align=left;verticalAlign=top;spacingLeft=4;spacingRight=4;overflow=hidden;rotatable=0;points=[[0,0.5],[1,0.5]];portConstraint=eastwest;" vertex="1" parent="189"><mxGeometry y="26" width="160" height="26" as="geometry"/></mxCell><mxCell id="190" value="" style="line;strokeWidth=1;fillColor=none;align=left;verticalAlign=middle;spacingTop=-1;spacingLeft=3;spacingRight=3;rotatable=0;labelPosition=right;points=[];portConstraint=eastwest;" vertex="1" parent="189"><mxGeometry y="52" width="160" height="8" as="geometry"/></mxCell><mxCell id="191" value="" style="endArrow=block;endSize=16;endFill=0;html=1;rounded=0;exitX=0.25;exitY=0;exitDx=0;exitDy=0;entryX=0.25;entryY=1;entryDx=0;entryDy=0;" edge="1" parent="1" source="189" target="rRgUCX8sxpJ9eBNvkMSi-53"><mxGeometry width="160" relative="1" as="geometry"><mxPoint x="-1735.96" y="839.81" as="sourcePoint"/><mxPoint x="-1903" y="672" as="targetPoint"/></mxGeometry></mxCell><mxCell id="198" value="Settings" style="swimlane;fontStyle=1;align=center;verticalAlign=top;childLayout=stackLayout;horizontal=1;startSize=26;horizontalStack=0;resizeParent=1;resizeParentMax=0;resizeLast=0;collapsible=1;marginBottom=0;" vertex="1" parent="1"><mxGeometry x="-1033" y="846" width="190" height="112" as="geometry"/></mxCell><mxCell id="199" value="- powerUpsOn: boolean" style="text;strokeColor=none;fillColor=none;align=left;verticalAlign=top;spacingLeft=4;spacingRight=4;overflow=hidden;rotatable=0;points=[[0,0.5],[1,0.5]];portConstraint=eastwest;" vertex="1" parent="198"><mxGeometry y="26" width="190" height="26" as="geometry"/></mxCell><mxCell id="200" value="" style="line;strokeWidth=1;fillColor=none;align=left;verticalAlign=middle;spacingTop=-1;spacingLeft=3;spacingRight=3;rotatable=0;labelPosition=right;points=[];portConstraint=eastwest;" vertex="1" parent="198"><mxGeometry y="52" width="190" height="8" as="geometry"/></mxCell><mxCell id="213" value="+ togglePowerUpsOn(): boolean" style="text;strokeColor=none;fillColor=none;align=left;verticalAlign=top;spacingLeft=4;spacingRight=4;overflow=hidden;rotatable=0;points=[[0,0.5],[1,0.5]];portConstraint=eastwest;" vertex="1" parent="198"><mxGeometry y="60" width="190" height="26" as="geometry"/></mxCell><mxCell id="201" value="+ getPowerUpsOn(): boolean" style="text;strokeColor=none;fillColor=none;align=left;verticalAlign=top;spacingLeft=4;spacingRight=4;overflow=hidden;rotatable=0;points=[[0,0.5],[1,0.5]];portConstraint=eastwest;" vertex="1" parent="198"><mxGeometry y="86" width="190" height="26" as="geometry"/></mxCell><mxCell id="202" value="" style="endArrow=none;html=1;rounded=0;entryX=0;entryY=0;entryDx=0;entryDy=0;exitX=0;exitY=1;exitDx=0;exitDy=0;exitPerimeter=0;" edge="1" parent="1" source="196" target="rRgUCX8sxpJ9eBNvkMSi-37"><mxGeometry relative="1" as="geometry"><mxPoint x="-1202.2799999999997" y="542.8400000000001" as="sourcePoint"/><mxPoint x="-1023" y="590.6609071274297" as="targetPoint"/></mxGeometry></mxCell><mxCell id="203" value="1" style="resizable=0;html=1;align=right;verticalAlign=bottom;" connectable="0" vertex="1" parent="202"><mxGeometry x="1" relative="1" as="geometry"/></mxCell><mxCell id="206" value="" style="endArrow=none;html=1;rounded=0;entryX=0;entryY=0;entryDx=0;entryDy=0;exitX=0.013;exitY=1.093;exitDx=0;exitDy=0;exitPerimeter=0;" edge="1" parent="1" source="196" target="198"><mxGeometry relative="1" as="geometry"><mxPoint x="-863" y="561" as="sourcePoint"/><mxPoint x="-773" y="329" as="targetPoint"/></mxGeometry></mxCell><mxCell id="207" value="1" style="resizable=0;html=1;align=right;verticalAlign=bottom;" connectable="0" vertex="1" parent="206"><mxGeometry x="1" relative="1" as="geometry"/></mxCell><mxCell id="215" value="" style="endArrow=none;html=1;rounded=0;exitX=0.5;exitY=1;exitDx=0;exitDy=0;entryX=0;entryY=0;entryDx=0;entryDy=0;" edge="1" parent="1" source="11" target="rRgUCX8sxpJ9eBNvkMSi-1"><mxGeometry relative="1" as="geometry"><mxPoint x="-1282.6" y="221.66200000000026" as="sourcePoint"/><mxPoint x="-1203" y="526.205882352941" as="targetPoint"/></mxGeometry></mxCell><mxCell id="216" value="1" style="resizable=0;html=1;align=right;verticalAlign=bottom;" connectable="0" vertex="1" parent="215"><mxGeometry x="1" relative="1" as="geometry"/></mxCell><mxCell id="219" value="" style="endArrow=none;html=1;rounded=0;exitX=1;exitY=1;exitDx=0;exitDy=0;entryX=0;entryY=0.5;entryDx=0;entryDy=0;" edge="1" parent="1" source="rRgUCX8sxpJ9eBNvkMSi-45" target="rRgUCX8sxpJ9eBNvkMSi-2"><mxGeometry relative="1" as="geometry"><mxPoint x="-1417.6400000000003" y="223.32600000000002" as="sourcePoint"/><mxPoint x="-1023" y="522.0000000000005" as="targetPoint"/></mxGeometry></mxCell><mxCell id="220" value="1" style="resizable=0;html=1;align=right;verticalAlign=bottom;" connectable="0" vertex="1" parent="219"><mxGeometry x="1" relative="1" as="geometry"/></mxCell><mxCell id="221" value="" style="endArrow=none;html=1;rounded=0;exitX=1;exitY=0.5;exitDx=0;exitDy=0;" edge="1" parent="1" source="rRgUCX8sxpJ9eBNvkMSi-63"><mxGeometry relative="1" as="geometry"><mxPoint x="-1603" y="202" as="sourcePoint"/><mxPoint x="-1033" y="562" as="targetPoint"/></mxGeometry></mxCell><mxCell id="222" value="1" style="resizable=0;html=1;align=right;verticalAlign=bottom;" connectable="0" vertex="1" parent="221"><mxGeometry x="1" relative="1" as="geometry"/></mxCell><mxCell id="224" value="" style="endArrow=none;html=1;rounded=0;exitX=0.442;exitY=1.029;exitDx=0;exitDy=0;entryX=0.5;entryY=0;entryDx=0;entryDy=0;exitPerimeter=0;" edge="1" parent="1" source="rRgUCX8sxpJ9eBNvkMSi-16" target="93"><mxGeometry relative="1" as="geometry"><mxPoint x="-1293" y="677" as="sourcePoint"/><mxPoint x="-1413" y="692" as="targetPoint"/></mxGeometry></mxCell><mxCell id="225" value="1" style="resizable=0;html=1;align=right;verticalAlign=bottom;" connectable="0" vertex="1" parent="224"><mxGeometry x="1" relative="1" as="geometry"/></mxCell><mxCell id="226" value="" style="endArrow=none;html=1;rounded=0;exitX=0.004;exitY=1.043;exitDx=0;exitDy=0;entryX=1;entryY=0;entryDx=0;entryDy=0;exitPerimeter=0;" edge="1" parent="1" source="rRgUCX8sxpJ9eBNvkMSi-16" target="rRgUCX8sxpJ9eBNvkMSi-29"><mxGeometry relative="1" as="geometry"><mxPoint x="-1333" y="799.5" as="sourcePoint"/><mxPoint x="-1403" y="702" as="targetPoint"/></mxGeometry></mxCell><mxCell id="227" value="1" style="resizable=0;html=1;align=right;verticalAlign=bottom;" connectable="0" vertex="1" parent="226"><mxGeometry x="1" relative="1" as="geometry"/></mxCell><mxCell id="239" value="" style="endArrow=none;html=1;rounded=0;entryX=0;entryY=0.5;entryDx=0;entryDy=0;exitX=0.5;exitY=0;exitDx=0;exitDy=0;" edge="1" parent="1" source="rRgUCX8sxpJ9eBNvkMSi-17" target="196"><mxGeometry relative="1" as="geometry"><mxPoint x="-1023" y="702.0000000000005" as="sourcePoint"/><mxPoint x="-1073" y="1031.9999999999995" as="targetPoint"/></mxGeometry></mxCell><mxCell id="240" value="1" style="resizable=0;html=1;align=right;verticalAlign=bottom;" connectable="0" vertex="1" parent="239"><mxGeometry x="1" relative="1" as="geometry"/></mxCell></root></mxGraphModel></diagram></mxfile>